# xmcd
#
# Track frame offsets: 
#        150
#        11623
#        23577
#        35749
#        49087
#        61217
#        74745
#        87133
#        96344
#        111313
#        126582
#        138574
#        149060
#
# Disc length: 2123 seconds
#
# Revision: 0
# Processed by: cddbd v1.4PL0 Copyright (c) Steve Scherf et al.
# Submitted via: ExactAudioCopy v0.90b3
#
DISCID=c708490d
DTITLE=The Kendalls - The Kendalls
DYEAR=1900
DGENRE=Country
TTITLE0=Heaven's Just A Sin Away
TTITLE1=Sweet Desire
TTITLE2=Curtain In The Window
TTITLE3=Pittsburgh Steelers
TTITLE4=I'm Already Blue
TTITLE5=Thank God For The Radio
TTITLE6=Pick Me Up On Your Way Down
TTITLE7=Blue Blue Day
TTITLE8=If You Let Him Drive You Crazy (He Will)
TTITLE9=Just Like Real People
TTITLE10=It Don't Feel Like Sinnin' To Me
TTITLE11=You'd Make An Angel Want To Cheat
TTITLE12=I Had A Lovely Time
EXTD=
EXTT0=
EXTT1=
EXTT2=
EXTT3=
EXTT4=
EXTT5=
EXTT6=
EXTT7=
EXTT8=
EXTT9=
EXTT10=
EXTT11=
EXTT12=
PLAYORDER=
